<?xml version="1.0" standalone="no"?>
<!DOCTYPE svg PUBLIC "-//W3C//DTD SVG 20010904//EN"
 "http://www.w3.org/TR/2001/REC-SVG-20010904/DTD/svg10.dtd">
<svg version="1.0" xmlns="http://www.w3.org/2000/svg"
 width="215.000000pt" height="215.000000pt" viewBox="0 0 215.000000 215.000000"
 preserveAspectRatio="xMidYMid meet">
<metadata>
Created by potrace 1.14, written by Peter Selinger 2001-2017
</metadata>
<g transform="translate(0.000000,215.000000) scale(0.100000,-0.100000)"
fill="#000000" stroke="none">
<path d="M1007 1407 l-58 -102 -66 3 c-62 4 -67 2 -88 -24 l-23 -29 2 25 c1
24 -1 25 -59 25 l-60 0 0 -113 c0 -61 -3 -112 -7 -112 -4 0 -17 10 -28 23 -20
20 -30 22 -141 23 -66 1 -122 -2 -124 -6 -2 -4 13 -23 34 -44 l37 -36 175 2
174 3 -3 25 -3 25 24 -27 c22 -27 27 -28 115 -28 l92 0 31 -55 c17 -30 35 -57
39 -60 5 -3 24 21 43 52 l33 58 101 3 c92 2 101 4 111 25 l11 22 0 -22 c1 -23
1 -23 180 -23 l179 0 36 40 c20 22 36 42 36 44 0 2 -57 4 -126 3 -120 -1 -127
-2 -141 -24 -30 -46 -39 -28 -38 80 1 56 -1 108 -3 115 -3 8 -26 12 -67 12
-55 0 -65 -3 -70 -20 -4 -11 -10 -18 -15 -15 -5 3 -7 12 -3 20 4 12 -7 15 -62
15 -41 0 -64 -4 -60 -10 3 -5 1 -10 -4 -10 -6 0 -11 4 -11 8 0 13 -120 212
-128 212 -4 0 -33 -47 -65 -103z m-103 -182 c-3 -8 4 -31 16 -50 19 -31 21
-40 10 -63 l-12 -27 -24 40 c-28 47 -28 48 -9 85 16 31 29 41 19 15z"/>
<path d="M10 1323 c0 -4 11 -23 25 -43 l24 -35 263 1 263 0 42 41 41 40 -329
1 c-181 1 -329 -2 -329 -5z"/>
<path d="M1524 1287 l38 -42 263 0 262 0 26 30 c15 17 27 35 27 42 0 9 -83 12
-327 11 l-328 0 39 -41z"/>
<path d="M86 1218 c4 -7 18 -28 31 -45 l24 -33 223 0 224 0 -1 45 -1 45 -253
0 c-201 0 -253 -3 -247 -12z"/>
<path d="M1569 1228 c0 -2 -2 -22 -5 -45 l-4 -43 224 0 224 0 31 39 c17 21 31
42 31 45 0 6 -499 9 -501 4z"/>
<path d="M541 1008 c21 -39 42 -43 212 -43 158 0 166 1 196 24 17 13 31 27 31
30 0 4 -101 7 -224 7 -209 -1 -224 -2 -215 -18z"/>
<path d="M1170 1022 c0 -2 14 -16 31 -31 l30 -27 169 1 c164 1 170 1 195 25
13 13 22 26 19 29 -6 7 -444 9 -444 3z"/>
<path d="M377 884 c-16 -9 -27 -18 -24 -20 3 -3 20 4 38 15 39 24 28 28 -14 5z"/>
<path d="M1830 862 c-33 -49 -38 -64 -9 -27 13 17 27 33 32 36 5 4 8 12 6 17
-2 6 -15 -5 -29 -26z"/>
<path d="M505 871 c-3 -11 -20 -29 -38 -40 -18 -11 -28 -21 -24 -21 5 0 22 9
38 21 31 22 56 59 40 59 -5 0 -12 -9 -16 -19z"/>
<path d="M413 844 c-25 -38 -22 -54 15 -87 13 -12 22 -15 27 -8 6 11 5 12 -16
15 -17 2 -32 46 -16 46 8 0 6 4 -3 10 -8 5 -10 10 -4 10 6 0 16 11 22 25 17
37 1 30 -25 -11z"/>
<path d="M515 820 c-10 -16 -22 -27 -26 -24 -4 2 -13 -4 -20 -14 -13 -15 -12
-16 4 -3 24 19 21 6 -7 -35 -14 -21 -26 -30 -28 -23 -3 9 -7 7 -11 -5 -4 -10
-3 -15 3 -11 17 11 11 -7 -7 -21 -11 -8 -13 -13 -6 -14 7 0 24 18 39 39 16 25
36 42 54 46 31 7 45 39 32 74 -7 19 -8 19 -27 -9z m25 -14 c0 -17 -30 -50 -38
-42 -5 6 25 56 33 56 3 0 5 -6 5 -14z"/>
<path d="M573 808 c-12 -17 -19 -36 -16 -41 4 -6 10 -1 14 10 4 12 12 24 18
28 15 9 14 -18 -1 -33 -7 -7 -8 -12 -2 -12 6 0 16 11 22 25 6 14 7 25 3 25 -5
0 -11 7 -13 15 -2 9 -10 4 -25 -17z"/>
<path d="M764 805 c-24 -45 -15 -52 13 -9 12 18 18 36 14 38 -5 3 -16 -10 -27
-29z"/>
<path d="M853 833 c-17 -6 -16 -21 2 -40 8 -8 13 -19 10 -24 -4 -5 -1 -9 4 -9
6 0 11 3 11 8 0 4 3 18 7 32 6 21 4 23 -9 13 -18 -16 -32 -5 -17 14 12 14 11
14 -8 6z"/>
<path d="M1021 833 c0 -7 -4 -12 -8 -12 -32 5 -62 -43 -43 -66 12 -14 -3 -32
-76 -94 -35 -30 -36 -32 -9 -18 71 36 151 136 142 180 -2 12 -5 16 -6 10z
m-22 -52 c-7 -21 -15 -29 -21 -23 -6 6 -4 19 7 36 23 34 28 28 14 -13z"/>
<path d="M1159 824 c-11 -13 -10 -17 4 -25 9 -6 14 -16 10 -26 -4 -11 -2 -14
8 -11 8 3 14 9 14 14 0 5 4 15 9 23 7 11 5 13 -8 8 -25 -10 -40 2 -25 19 6 8
9 14 6 14 -2 0 -11 -7 -18 -16z"/>
<path d="M1307 826 c-18 -14 -17 -14 2 -21 35 -11 23 -32 -14 -25 -5 1 -5 -4
2 -11 9 -9 15 -9 27 0 11 9 15 9 19 -1 4 -9 6 -9 7 2 0 8 7 24 16 35 13 18 14
17 8 -13 -6 -28 -4 -32 14 -32 12 0 24 4 27 10 4 6 13 5 25 -2 16 -11 22 -9
34 7 14 18 15 18 16 3 0 -10 4 -18 9 -18 6 0 9 9 8 20 -2 24 -20 26 -37 5 -17
-21 -24 -12 -10 14 15 29 -1 26 -30 -4 -21 -23 -50 -34 -50 -19 0 18 24 45 35
40 9 -3 12 0 8 9 -4 11 -10 12 -24 4 -10 -5 -19 -7 -19 -3 0 3 -6 1 -14 -5
-10 -9 -15 -8 -20 4 -7 18 -15 19 -39 1z m36 -15 c4 -17 2 -18 -14 -8 -13 8
-15 13 -6 19 7 4 13 8 13 8 1 0 4 -9 7 -19z"/>
<path d="M1549 819 l-24 -21 28 16 c23 14 27 14 27 2 0 -8 -8 -21 -17 -28 -10
-7 -18 -22 -17 -33 0 -26 -12 -42 -60 -77 -43 -31 -41 -38 2 -11 42 26 83 76
78 95 -2 10 3 23 11 30 14 11 15 10 9 -10 -10 -32 -1 -27 23 12 26 42 27 59 1
26 -15 -20 -20 -21 -20 -8 0 27 -16 30 -41 7z"/>
<path d="M708 800 c-16 -27 -16 -31 -2 -37 8 -3 21 0 27 7 9 10 9 11 0 6 -18
-10 -16 5 3 32 11 17 12 22 2 22 -7 0 -21 -14 -30 -30z"/>
<path d="M1086 805 c-16 -25 -14 -45 4 -45 5 0 7 6 4 14 -3 7 2 20 10 29 18
17 20 27 7 27 -5 0 -16 -11 -25 -25z"/>
<path d="M622 795 c-14 -31 -15 -35 -3 -35 5 0 11 8 15 18 3 9 9 23 12 30 3 6
2 12 -4 12 -5 0 -14 -11 -20 -25z"/>
<path d="M1636 804 c-9 -22 -7 -44 2 -44 5 0 9 6 9 13 0 6 4 20 8 30 4 9 3 17
-3 17 -5 0 -13 -7 -16 -16z"/>
<path d="M1680 801 c-5 -11 -10 -24 -10 -30 0 -15 27 -14 36 1 5 7 3 8 -6 3
-10 -6 -11 -2 -6 19 8 31 1 34 -14 7z"/>
<path d="M790 792 c0 -10 -3 -22 -7 -28 -5 -5 0 -1 10 9 19 21 22 37 7 37 -5
0 -10 -8 -10 -18z"/>
<path d="M1729 808 c-6 -25 -6 -39 1 -43 4 -3 10 4 13 15 3 11 1 23 -4 26 -5
3 -9 4 -10 2z"/>
<path d="M367 780 c-13 -16 -14 -20 -3 -20 8 0 17 7 20 16 9 25 2 26 -17 4z"/>
<path d="M1116 781 c-10 -16 23 -26 37 -11 9 10 9 11 -2 5 -7 -4 -16 -2 -21 5
-5 9 -9 9 -14 1z"/>
<path d="M655 770 c3 -5 11 -10 16 -10 6 0 7 5 4 10 -3 6 -11 10 -16 10 -6 0
-7 -4 -4 -10z"/>
<path d="M810 769 c0 -11 27 -12 34 -1 2 4 -4 9 -15 9 -10 1 -19 -2 -19 -8z"/>
<path d="M1030 770 c0 -5 5 -10 10 -10 6 0 10 5 10 10 0 6 -4 10 -10 10 -5 0
-10 -4 -10 -10z"/>
<path d="M884 708 c-41 -30 -52 -42 -29 -30 26 15 72 51 64 52 -4 0 -19 -10
-35 -22z"/>
<path d="M1436 695 c-26 -24 -28 -45 -3 -45 8 0 8 3 -1 9 -11 6 -8 14 14 35
16 14 26 26 23 26 -3 0 -18 -11 -33 -25z"/>
<path d="M830 645 c0 -8 4 -15 10 -15 5 0 7 7 4 15 -4 8 -8 15 -10 15 -2 0 -4
-7 -4 -15z"/>
</g>
</svg>
